{
	"asset":{
		"generator":"Khronos glTF Blender I/O v3.6.28",
		"version":"2.0"
	},
	"scene":0,
	"scenes":[
		{
			"name":"Scene",
			"nodes":[
				0
			]
		}
	],
	"nodes":[
		{
			"mesh":0,
			"name":"AizawaAttractor"
		}
	],
	"meshes":[
		{
			"name":"Mesh.010",
			"primitives":[
				{
					"attributes":{
						"POSITION":0,
						"NORMAL":1
					},
					"indices":2
				}
			]
		}
	],
	"accessors":[
		{
			"bufferView":0,
			"componentType":5126,
			"count":205080,
			"max":[
				30.567480087280273,
				38.28972625732422,
				29.828882217407227
			],
			"min":[
				-30.953968048095703,
				-12.982988357543945,
				-31.799678802490234
			],
			"type":"VEC3"
		},
		{
			"bufferView":1,
			"componentType":5126,
			"count":205080,
			"type":"VEC3"
		},
		{
			"bufferView":2,
			"componentType":5125,
			"count":319452,
			"type":"SCALAR"
		}
	],
	"bufferViews":[
		{
			"buffer":0,
			"byteLength":2460960,
			"byteOffset":0,
			"target":34962
		},
		{
			"buffer":0,
			"byteLength":2460960,
			"byteOffset":2460960,
			"target":34962
		},
		{
			"buffer":0,
			"byteLength":1277808,
			"byteOffset":4921920,
			"target":34963
		}
	],
	"buffers":[
		{
			"byteLength":6199728,
			"uri":"AizawaAttractor.bin"
		}
	]
}
