{
	"asset":{
		"generator":"Khronos glTF Blender I/O v4.2.57",
		"version":"2.0"
	},
	"extensionsUsed":[
		"KHR_materials_specular"
	],
	"scene":0,
	"scenes":[
		{
			"name":"Scene",
			"nodes":[
				0,
				1,
				2,
				3,
				4,
				5,
				6
			]
		}
	],
	"nodes":[
		{
			"mesh":0,
			"name":"banana"
		},
		{
			"mesh":1,
			"name":"collider",
			"scale":[
				0.17732061445713043,
				0.17732061445713043,
				0.17732061445713043
			],
			"translation":[
				-0.08283299952745438,
				-0.005016952753067017,
				0.008242513984441757
			]
		},
		{
			"mesh":1,
			"name":"collider_5",
			"scale":[
				0.13932611048221588,
				0.13932611048221588,
				0.13932611048221588
			],
			"translation":[
				0.11313673853874207,
				-0.2605259418487549,
				0.027755262330174446
			]
		},
		{
			"mesh":1,
			"name":"collider_2",
			"scale":[
				0.07554354518651962,
				0.07554354518651962,
				0.07554354518651962
			],
			"translation":[
				0.3177816867828369,
				-0.30826982855796814,
				0.04436878487467766
			]
		},
		{
			"mesh":1,
			"name":"collider_3",
			"scale":[
				0.1563595086336136,
				0.1563595086336136,
				0.1563595086336136
			],
			"translation":[
				-0.08203347772359848,
				0.3534770905971527,
				0.050145309418439865
			]
		},
		{
			"mesh":1,
			"name":"collider_4",
			"scale":[
				0.05108894407749176,
				0.05108894407749176,
				0.05108894407749176
			],
			"translation":[
				0.04189889878034592,
				0.6791275143623352,
				0.19646604359149933
			]
		},
		{
			"mesh":1,
			"name":"collider_1",
			"scale":[
				0.04658643901348114,
				0.04658643901348114,
				0.04658643901348114
			],
			"translation":[
				-0.0030293348245322704,
				0.5650193095207214,
				0.13602876663208008
			]
		}
	],
	"materials":[
		{
			"alphaMode":"BLEND",
			"doubleSided":true,
			"extensions":{
				"KHR_materials_specular":{
					"specularColorFactor":[
						2.0,
						2.0,
						2.0
					]
				}
			},
			"name":"Material.001",
			"normalTexture":{
				"index":0
			},
			"pbrMetallicRoughness":{
				"baseColorFactor":[
					1,
					1,
					1,
					0.3539823293685913
				],
				"baseColorTexture":{
					"index":1
				},
				"metallicRoughnessTexture":{
					"index":2
				}
			}
		},
		{
			"doubleSided":true,
			"name":"Material",
			"pbrMetallicRoughness":{
				"baseColorFactor":[
					0.800000011920929,
					0.800000011920929,
					0.800000011920929,
					1
				],
				"metallicFactor":0,
				"roughnessFactor":0.5
			}
		}
	],
	"meshes":[
		{
			"name":"node_0",
			"primitives":[
				{
					"attributes":{
						"POSITION":0,
						"NORMAL":1,
						"TEXCOORD_0":2
					},
					"indices":3,
					"material":0
				}
			]
		},
		{
			"name":"Icosphere",
			"primitives":[
				{
					"attributes":{
						"POSITION":4,
						"NORMAL":5,
						"TEXCOORD_0":6
					},
					"indices":7,
					"material":1
				}
			]
		}
	],
	"textures":[
		{
			"sampler":0,
			"source":0
		},
		{
			"sampler":0,
			"source":1
		},
		{
			"sampler":0,
			"source":2
		}
	],
	"images":[
		{
			"mimeType":"image/png",
			"name":"texture_pbr_20250901_normal",
			"uri":"texture_pbr_20250901_normal.png"
		},
		{
			"mimeType":"image/png",
			"name":"texture_pbr_20250901",
			"uri":"texture_pbr_20250901.png"
		},
		{
			"mimeType":"image/png",
			"name":"texture_pbr_20250901_metallic-texture_pbr_20250901_roughness",
			"uri":"texture_pbr_20250901_metallic-texture_pbr_20250901_roughness.png"
		}
	],
	"accessors":[
		{
			"bufferView":0,
			"componentType":5126,
			"count":20714,
			"max":[
				0.4250895380973816,
				0.7283605933189392,
				0.26993539929389954
			],
			"min":[
				-0.2802659869194031,
				-0.4216272830963135,
				-0.17229138314723969
			],
			"type":"VEC3"
		},
		{
			"bufferView":1,
			"componentType":5126,
			"count":20714,
			"type":"VEC3"
		},
		{
			"bufferView":2,
			"componentType":5126,
			"count":20714,
			"type":"VEC2"
		},
		{
			"bufferView":3,
			"componentType":5123,
			"count":89994,
			"type":"SCALAR"
		},
		{
			"bufferView":4,
			"componentType":5126,
			"count":240,
			"max":[
				0.9510578513145447,
				1,
				0.9999999403953552
			],
			"min":[
				-0.9510578513145447,
				-1,
				-0.9999999403953552
			],
			"type":"VEC3"
		},
		{
			"bufferView":5,
			"componentType":5126,
			"count":240,
			"type":"VEC3"
		},
		{
			"bufferView":6,
			"componentType":5126,
			"count":240,
			"type":"VEC2"
		},
		{
			"bufferView":7,
			"componentType":5123,
			"count":240,
			"type":"SCALAR"
		}
	],
	"bufferViews":[
		{
			"buffer":0,
			"byteLength":248568,
			"byteOffset":0,
			"target":34962
		},
		{
			"buffer":0,
			"byteLength":248568,
			"byteOffset":248568,
			"target":34962
		},
		{
			"buffer":0,
			"byteLength":165712,
			"byteOffset":497136,
			"target":34962
		},
		{
			"buffer":0,
			"byteLength":179988,
			"byteOffset":662848,
			"target":34963
		},
		{
			"buffer":0,
			"byteLength":2880,
			"byteOffset":842836,
			"target":34962
		},
		{
			"buffer":0,
			"byteLength":2880,
			"byteOffset":845716,
			"target":34962
		},
		{
			"buffer":0,
			"byteLength":1920,
			"byteOffset":848596,
			"target":34962
		},
		{
			"buffer":0,
			"byteLength":480,
			"byteOffset":850516,
			"target":34963
		}
	],
	"samplers":[
		{
			"magFilter":9729,
			"minFilter":9987
		}
	],
	"buffers":[
		{
			"byteLength":850996,
			"uri":"banana.bin"
		}
	]
}
