{
	"asset":{
		"generator":"Khronos glTF Blender I/O v3.6.28",
		"version":"2.0"
	},
	"scene":0,
	"scenes":[
		{
			"name":"Scene",
			"nodes":[
				0
			]
		}
	],
	"nodes":[
		{
			"mesh":0,
			"name":"DadrasAttractor",
			"scale":[
				2.6821932792663574,
				2.6821932792663574,
				2.6821932792663574
			]
		}
	],
	"meshes":[
		{
			"name":"Mesh.003",
			"primitives":[
				{
					"attributes":{
						"POSITION":0,
						"NORMAL":1
					},
					"indices":2
				}
			]
		}
	],
	"accessors":[
		{
			"bufferView":0,
			"componentType":5126,
			"count":40932,
			"max":[
				13.131678581237793,
				9.478853225708008,
				8.66225814819336
			],
			"min":[
				-14.276589393615723,
				-7.385610580444336,
				-7.174835205078125
			],
			"type":"VEC3"
		},
		{
			"bufferView":1,
			"componentType":5126,
			"count":40932,
			"type":"VEC3"
		},
		{
			"bufferView":2,
			"componentType":5123,
			"count":245580,
			"type":"SCALAR"
		}
	],
	"bufferViews":[
		{
			"buffer":0,
			"byteLength":491184,
			"byteOffset":0,
			"target":34962
		},
		{
			"buffer":0,
			"byteLength":491184,
			"byteOffset":491184,
			"target":34962
		},
		{
			"buffer":0,
			"byteLength":491160,
			"byteOffset":982368,
			"target":34963
		}
	],
	"buffers":[
		{
			"byteLength":1473528,
			"uri":"DadrasAttractor.bin"
		}
	]
}
